<svg xmlns="http://www.w3.org/2000/svg" viewBox="0 0 24 24" role="img" aria-label="Apple">
  <path fill="currentColor" d="M16.4 13.2c0-2 1.7-3 1.8-3.1-1-1.5-2.6-1.7-3.2-1.7-1.3-.1-2.6.8-3.3.8-.7 0-1.8-.8-2.9-.8-1.5 0-2.9.9-3.7 2.2-1.6 2.8-.4 7 1.1 9.2.8 1.1 1.7 2.4 3 2.3 1.2-.1 1.6-.8 3.1-.8 1.4 0 1.8.8 3.1.8 1.3 0 2.1-1.2 2.9-2.3.9-1.3 1.3-2.6 1.3-2.7-.1 0-2.4-.9-2.4-3.4Z"/>
  <path fill="currentColor" d="M14.7 5.1c.6-.8 1-1.9.9-3-1 .1-2.1.7-2.8 1.5-.6.7-1.1 1.8-.9 2.9 1.1.1 2.2-.6 2.8-1.4Z"/>
</svg>
